PathFileType	4	(X/Y/Z)	/Users/itak/Documents/Research/Walk-IL/dataset/trc/00486_00167.trc
DataRate	CameraRate	NumFrames	NumMarkers	Units	OrigDataRate	OrigDataStartFrame	OrigNumFrames
100.000000	100.000000	4	54	mm	100.000000	62	497
Frame#	Time	RPSI			LPSI			L3			STRN			T10			C7			CLAV			RBAK			LBAK			LSHO			LUPA			LAEL			LAOL			LWTS			LWPS			LFRA			LIFD			LHPS			RSHO			RUPA			RAEL			RAOL			RWTS			RWPS			RFRA			RIFD			RHTS			RHPS			RBHD			LFHD			RFHD			LBHD			LHIP			RHIP			RASI			LASI			LKNE			LTHI			LANK			LTIP			LTOE			LMT1			LMT5			LHEE			RKNE			RTHI			RANK			RTIP			RTOE			RMT1			RMT5			RHEE			LHTS			*53			
		X1	Y1	Z1	X2	Y2	Z2	X3	Y3	Z3	X4	Y4	Z4	X5	Y5	Z5	X6	Y6	Z6	X7	Y7	Z7	X8	Y8	Z8	X9	Y9	Z9	X10	Y10	Z10	X11	Y11	Z11	X12	Y12	Z12	X13	Y13	Z13	X14	Y14	Z14	X15	Y15	Z15	X16	Y16	Z16	X17	Y17	Z17	X18	Y18	Z18	X19	Y19	Z19	X20	Y20	Z20	X21	Y21	Z21	X22	Y22	Z22	X23	Y23	Z23	X24	Y24	Z24	X25	Y25	Z25	X26	Y26	Z26	X27	Y27	Z27	X28	Y28	Z28	X29	Y29	Z29	X30	Y30	Z30	X31	Y31	Z31	X32	Y32	Z32	X33	Y33	Z33	X34	Y34	Z34	X35	Y35	Z35	X36	Y36	Z36	X37	Y37	Z37	X38	Y38	Z38	X39	Y39	Z39	X40	Y40	Z40	X41	Y41	Z41	X42	Y42	Z42	X43	Y43	Z43	X44	Y44	Z44	X45	Y45	Z45	X46	Y46	Z46	X47	Y47	Z47	X48	Y48	Z48	X49	Y49	Z49	X50	Y50	Z50	X51	Y51	Z51	X52	Y52	Z52	X53	Y53	Z53	X54	Y54	Z54	

63	0.62	-1555.856811523438	959.4850463867188	-277.4261474609375	-1471.642944335938	959.7320556640625	-392.2103576660156	-1510.070678710938	1055.39501953125	-314.5999755859375	-1282.385864257812	1252.062744140625	-169.6486968994141	-1525.431396484375	1180.111450195312	-328.3407897949219	-1475.863159179688	1449.68603515625	-279.3067626953125	-1311.156616210938	1364.6298828125	-192.0715484619141	-1578.047729492188	1328.474487304688	-233.6682586669922	-1448.592041015625	1401.556640625	-381.8017578125	-1319.50146484375	1421.916381835938	-391.673095703125	-1272.452392578125	1306.611206054688	-481.3001708984375	-1235.240356445312	1092.651611328125	-507.1936645507812	-1337.515502929688	1075.8984375	-496.9937744140625	-1189.037841796875	889.7275390625	-427.8529357910156	-1193.904418945312	875.7454833984375	-500.7855834960938	-1209.907836914062	1005.452392578125	-505.0578002929688	-1179.272705078125	727.7073364257812	-433.2206726074219	-1183.861694335938	798.419189453125	-496.77099609375	-1502.690795898438	1418.824096679688	-107.1783218383789	-1559.480712890625	1358.874755859375	-52.46451187133789	-1586.648193359375	1068.398193359375	-8.721376419067383	-1607.3115234375	1052.276977539062	-72.60565948486328	-1467.609252929688	867.650146484375	5.145830631256104	-1552.82421875	849.0879516601562	19.6585693359375	-1586.551391601562	1009.822570800781	0.6929826736450195	-1460.647583007812	711.6939086914062	10.52668285369873	-1455.281494140625	771.0621948242188	20.77981185913086	-1532.226806640625	762.0182495117188	23.68449020385742	-1430.230346679688	1648.448852539062	-149.7053527832031	-1237.235229492188	1647.872680664062	-226.9593658447266	-1297.892456054688	1648.01953125	-110.5188217163086	-1362.982177734375	1654.359497070312	-314.4201354980469	-1291.8203125	861.9251708984375	-412.5866394042969	-1541.033203125	852.0637817382812	-97.98684692382812	-1420.234130859375	895.9240112304688	-89.21829986572266	-1259.114501953125	898.9306030273438	-290.0809326171875	-1276.824462890625	439.962890625	-379.4253540039062	-1251.537231445312	596.0886840820312	-381.0683898925781	-1394.3427734375	47.19199752807617	-485.6498413085938	-1298.637817382812	292.4529113769531	-421.2995910644531	-1247.438232421875	45.19793701171875	-292.9356384277344	-1326.748779296875	51.03644943237305	-314.1255798339844	-1262.10888671875	46.60197448730469	-407.3753662109375	-1468.006103515625	53.04683303833008	-458.1846008300781	-1487.088500976562	461.1446533203125	-119.9856796264648	-1504.247680664062	717.3109130859375	-70.15692901611328	-1567.533203125	40.43851852416992	-186.2191772460938	-1498.337646484375	315.0908813476562	-124.4697647094727	-1356.647094726562	48.80173492431641	-113.8162231445312	-1392.306884765625	54.58920669555664	-176.5403594970703	-1466.4453125	48.49845504760742	-96.06247711181641	-1597.09228515625	32.30633163452148	-259.8417358398438	-1167.534545898438	804.64697265625	-426.0921325683594	nan	nan	nan	
64	0.63	-1555.722290039062	958.67919921875	-275.8150634765625	-1471.773681640625	958.5032348632812	-390.7353515625	-1510.227416992188	1055.072631835938	-312.2799987792969	-1282.407348632812	1251.2548828125	-166.5374908447266	-1525.499633789062	1179.849609375	-325.5467529296875	-1475.415771484375	1449.228759765625	-275.9474182128906	-1310.960205078125	1363.8896484375	-188.8373107910156	-1577.839721679688	1328.196655273438	-230.5084686279297	-1448.289672851562	1401.261840820312	-378.5126037597656	-1319.150024414062	1421.424438476562	-388.3088989257812	-1272.3447265625	1306.289794921875	-478.1947937011719	-1235.498291015625	1092.524291992188	-505.0644226074219	-1337.76611328125	1075.696166992188	-494.4952392578125	-1188.740356445312	889.6551513671875	-426.205078125	-1193.845947265625	875.6470947265625	-499.1395874023438	-1210.059326171875	1005.34130859375	-503.1686096191406	-1178.737426757812	727.5413208007812	-431.7825622558594	-1183.742431640625	798.3143310546875	-495.2453002929688	-1502.361572265625	1418.244140625	-103.8892669677734	-1559.252319335938	1358.314208984375	-49.24295806884766	-1586.73974609375	1067.790283203125	-5.735306262969971	-1607.711669921875	1051.833740234375	-69.66907501220703	-1467.571044921875	867.0807495117188	7.739658355712891	-1552.75537109375	848.4661254882812	22.43030548095703	-1586.617065429688	1009.207824707031	3.654952049255371	-1460.521728515625	711.1215209960938	12.99426460266113	-1455.168701171875	770.486083984375	23.27676200866699	-1532.100219726562	761.3871459960938	26.33850288391113	-1429.088989257812	1647.767578125	-145.9555053710938	-1236.2880859375	1646.719482421875	-223.578857421875	-1296.671630859375	1646.914184570312	-107.0345687866211	-1362.14990234375	1653.715576171875	-310.7940063476562	-1290.844848632812	860.5264282226562	-409.6416625976562	-1541.141967773438	851.7459716796875	-96.24738311767578	-1420.572509765625	895.6843872070312	-86.84757995605469	-1259.24462890625	898.5623168945312	-287.3580322265625	-1269.9970703125	439.1036071777344	-372.8356018066406	-1246.460327148438	595.5423583984375	-374.2779235839844	-1394.240234375	49.15719223022461	-484.8754577636719	-1294.56494140625	292.0581665039062	-417.5921325683594	-1246.981079101562	44.56903457641602	-292.5423889160156	-1326.216918945312	50.99772644042969	-313.7766418457031	-1261.949096679688	46.52953338623047	-407.1014404296875	-1467.612670898438	55.5322151184082	-457.0179138183594	-1487.420288085938	460.8885192871094	-118.7322769165039	-1504.095947265625	717.02978515625	-68.34475708007812	-1567.69091796875	40.30452728271484	-186.1680145263672	-1498.5029296875	314.6913146972656	-123.6342010498047	-1356.732299804688	48.83805847167969	-113.925666809082	-1392.3955078125	54.58488082885742	-176.5671539306641	-1466.5458984375	48.47254943847656	-96.03654479980469	-1597.249633789062	32.17719650268555	-259.8157043457031	-1167.004272460938	804.4528198242188	-424.6253662109375	nan	nan	nan	
65	0.64	-1555.57177734375	957.7936401367188	-274.2692260742188	-1471.890869140625	956.9725952148438	-389.3614807128906	-1510.366943359375	1054.701904296875	-309.9832458496094	-1282.37353515625	1250.34228515625	-163.4752807617188	-1525.519409179688	1179.542846679688	-322.7321166992188	-1474.901489257812	1448.73486328125	-272.5504760742188	-1310.687622070312	1363.062377929688	-185.6250610351562	-1577.579956054688	1327.876586914062	-227.2947387695312	-1447.947631835938	1400.937133789062	-375.19873046875	-1318.76953125	1420.869140625	-384.9576110839844	-1272.242797851562	1305.881225585938	-475.1148071289062	-1235.758911132812	1092.310791015625	-502.9656372070312	-1337.980712890625	1075.375122070312	-492.0105590820312	-1188.39892578125	889.5576171875	-424.5153198242188	-1193.75390625	875.4800415039062	-497.4568176269531	-1210.185913085938	1005.13671875	-501.2781982421875	-1178.11767578125	727.3235473632812	-430.2712707519531	-1183.539916992188	798.1367797851562	-493.6605224609375	-1501.924560546875	1417.572875976562	-100.5531997680664	-1558.906494140625	1357.658447265625	-45.96192932128906	-1586.784423828125	1067.105712890625	-2.643516778945923	-1608.125732421875	1051.328125	-66.62961578369141	-1467.529541015625	866.4126586914062	10.3928279876709	-1552.67626953125	847.760986328125	25.30716514587402	-1586.64697265625	1008.5146484375	6.719493865966797	-1460.401611328125	710.4496459960938	15.50603008270264	-1455.052124023438	769.8101196289062	25.81835746765137	-1531.975830078125	760.6703491210938	29.08640670776367	-1427.88427734375	1647.030395507812	-142.1820068359375	-1235.278686523438	1645.546752929688	-220.1721801757812	-1295.401611328125	1645.778930664062	-103.5300521850586	-1361.236938476562	1653.009643554688	-307.1400756835938	-1289.773681640625	859.0523681640625	-406.7379150390625	-1541.165649414062	851.4265747070312	-94.54236602783203	-1420.817504882812	895.4165649414062	-84.5379638671875	-1259.365600585938	898.118896484375	-284.73779296875	-1262.873291015625	438.4718322753906	-366.106201171875	-1241.068969726562	595.1597290039062	-367.2552185058594	-1394.075439453125	51.75267028808594	-484.0409545898438	-1290.263793945312	292.0853576660156	-413.7315368652344	-1246.548461914062	44.03875732421875	-292.1971435546875	-1325.638549804688	51.05425643920898	-313.4249267578125	-1261.83642578125	46.55380630493164	-406.7900085449219	-1467.158325195312	58.91951370239258	-455.7341003417969	-1487.720947265625	460.624755859375	-117.503044128418	-1503.903686523438	716.7645263671875	-66.55410766601562	-1567.840209960938	40.17784118652344	-186.1345977783203	-1498.678466796875	314.3071899414062	-122.8099060058594	-1356.826293945312	48.86703872680664	-114.0158309936523	-1392.490600585938	54.58584594726562	-176.5785217285156	-1466.653564453125	48.44673156738281	-96.00199127197266	-1597.380737304688	32.04751586914062	-259.8217163085938	-1166.421264648438	804.2297973632812	-423.1098022460938	nan	nan	nan	
66	0.65	-1555.396728515625	956.8472290039062	-272.7705078125	-1471.953857421875	955.206298828125	-388.0571594238281	-1510.484252929688	1054.312377929688	-307.7139892578125	-1282.27001953125	1249.350830078125	-160.4767608642578	-1525.466796875	1179.215576171875	-319.9076843261719	-1474.312133789062	1448.223510742188	-269.1336059570312	-1310.329223632812	1362.171997070312	-182.4549865722656	-1577.264282226562	1327.533569335938	-224.0513305664062	-1447.561279296875	1400.601440429688	-371.8806457519531	-1318.345581054688	1420.266723632812	-381.6464538574219	-1272.142333984375	1305.389526367188	-472.0752258300781	-1236.015869140625	1092.013549804688	-500.8894958496094	-1338.143188476562	1074.937866210938	-489.5309753417969	-1188.016357421875	889.4226684570312	-422.783447265625	-1193.642944335938	875.2476806640625	-495.7398071289062	-1210.29248046875	1004.841064453125	-499.3838500976562	-1177.430786132812	727.0562744140625	-428.7015380859375	-1183.25927734375	797.8889770507812	-492.0190734863281	-1501.374877929688	1416.8193359375	-97.18434906005859	-1558.43212890625	1356.911010742188	-42.64233779907227	-1586.765014648438	1066.353881835938	0.5513466596603394	-1608.529052734375	1050.766845703125	-63.4947509765625	-1467.490112304688	865.647705078125	13.10506153106689	-1552.591186523438	846.981689453125	28.28404426574707	-1586.627197265625	1007.75244140625	9.881619453430176	-1460.301635742188	709.682861328125	18.0739631652832	-1454.942993164062	769.0401611328125	28.41204643249512	-1531.8642578125	759.876708984375	31.93100166320801	-1426.6044921875	1646.260375976562	-138.3922576904297	-1234.192138671875	1644.376953125	-216.7431182861328	-1294.072875976562	1644.625610351562	-100.006217956543	-1360.22705078125	1652.276611328125	-303.4637756347656	-1288.596801757812	857.5988159179688	-403.8793334960938	-1541.107788085938	851.0935668945312	-92.86253356933594	-1420.96630859375	895.1149291992188	-82.28513336181641	-1259.463012695312	897.632568359375	-282.2080688476562	-1255.503784179688	438.1471557617188	-359.2504272460938	-1235.412475585938	595.0310668945312	-360.1198425292969	-1393.822998046875	55.05542755126953	-483.1314392089844	-1285.733520507812	292.6050109863281	-409.6720581054688	-1246.168334960938	43.60197830200195	-291.9069213867188	-1325.034545898438	51.20398712158203	-313.0509338378906	-1261.777954101562	46.73509216308594	-406.4141845703125	-1466.629638671875	63.30121612548828	-454.3359069824219	-1487.966552734375	460.346923828125	-116.3050308227539	-1503.696044921875	716.5011596679688	-64.80275726318359	-1567.97607421875	40.06293487548828	-186.1194305419922	-1498.841430664062	313.9326477050781	-122.0176010131836	-1356.924194335938	48.88818359375	-114.0856323242188	-1392.588745117188	54.59120178222656	-176.57470703125	-1466.7646484375	48.42095184326172	-95.96127319335938	-1597.483764648438	31.92246437072754	-259.8558959960938	-1165.787841796875	803.9778442382812	-421.5520324707031	nan	nan	nan	
